<?xml version="1.0" encoding="UTF-8"?>
<svg id="Layer_2" data-name="Layer 2" xmlns="http://www.w3.org/2000/svg" viewBox="0 0 204.92 225.6">
  <defs>
    <style>
      .cls-1 {
        fill: #4c78ab;
      }

      .cls-2 {
        stroke: #3a61ab;
        stroke-width: .72px;
      }

      .cls-2, .cls-3 {
        fill: none;
        stroke-miterlimit: 22.93;
      }

      .cls-4 {
        fill: #0f3d88;
      }

      .cls-3 {
        stroke: #4c78ab;
        stroke-width: 1.44px;
      }

      .cls-5 {
        fill: #3a61ab;
      }

      .cls-6 {
        fill: #234b9b;
      }

      .cls-7 {
        fill: #0c408e;
      }

      .cls-8 {
        fill: #3354a2;
      }

      .cls-9 {
        fill: #0f2b65;
      }
    </style>
  </defs>
  <g id="Layer_1-2" data-name="Layer 1">
    <g>
      <path class="cls-5" d="M75.22,156.58c32.3,0-22.7-88.95-37.89-104.15-2.83,3.29-8.03,11.58-9.93,15.59-15.13,30.59-1.51,80.79,37.04,109.34-32.76-14.21-55.72-46.84-55.72-84.87C8.71,41.45,50.09,.07,101.14,.07c-58.68,34.21,39.21,156.51-25.92,156.51"/>
      <path class="cls-7" d="M37.86,58.55c-2.83,3.29-5.2,6.91-7.17,10.92-15.13,30.59-4.87,79.34,33.68,107.89C24.04,151.45-1.88,100.66,36.28,42.37c0,0,17.63,17.44,36.32,56.45,18.68,39.01,20.72,57.83,2.56,57.83,25.99-.07-22.11-82.9-37.3-98.09"/>
      <path class="cls-9" d="M76.67,156.58c35.2-1.25,15.46-46.71,6.05-82.3C74.63,43.49,66.94,11.84,101.14,0c-47.7,36.05,37.83,154.74-24.47,156.58"/>
      <path class="cls-9" d="M127.13,28.42c-33.22,3.35,22.89,89.8,38.09,104.93,2.83-3.29,8.75-13.49,10.72-17.44,15.13-30.59,.59-79.74-38.03-108.29,32.83,14.21,55.72,46.91,55.72,84.87,0,51.05-41.38,92.5-92.5,92.5C161.67,151.12,62,28.42,127.13,28.42"/>
      <path class="cls-6" d="M164.5,126.45c2.83-3.29,5.2-6.91,7.17-10.92,15.13-30.59,4.87-79.34-33.68-107.9,40.33,25.92,66.32,76.78,28.09,135.07,0,0-17.63-17.43-36.32-56.45-18.68-39.01-20.72-57.83-2.63-57.83-25.99,0,22.17,82.89,37.37,98.02"/>
      <path class="cls-7" d="M125.69,28.49c-35.2,1.25-15.46,46.71-6.05,82.3,8.09,30.79,15.79,62.44-18.42,74.28C148.91,149.01,63.38,30.33,125.69,28.49"/>
      <path class="cls-8" d="M33.03,156.53c-15.07-16.05-23.88-37.77-24.28-59.81-.85-29.74,12.96-59.67,38.22-76.05,6.12-4.08,12.89-7.3,19.87-9.47,.07,0,.2,0,.2,.13,0,.07,0,.2-.07,.2-6.58,3.16-12.83,6.84-18.49,11.25-16.97,13.03-29.67,31.78-34.87,52.57-6.91,28.09,.53,59.08,19.67,80.92,.07,.07,.07,.2,0,.26-.07,.07-.2,.07-.26,0"/>
      <path class="cls-6" d="M166.74,28.36c15.07,16.05,23.88,37.76,24.28,59.8,.85,29.74-12.96,59.67-38.23,76.05-6.12,4.08-12.89,7.3-19.87,9.47-.07,0-.2,0-.2-.13,0-.07,0-.2,.07-.2,6.58-3.16,12.83-6.84,18.49-11.25,16.97-13.03,29.67-31.78,34.87-52.57,6.91-28.09-.53-59.08-19.67-80.92-.07-.07-.07-.2,0-.26,.07-.13,.2-.07,.26,0"/>
      <path class="cls-1" d="M188.2,224.22h5.69v-11.01l9.7-14.8h-6.75l-5.8,9.66-5.47-9.66h-7.07l9.7,14.8v11.01Zm-42.85,0h6.75l6.13-10.39,6.31,10.39h7.15l-9.33-13.6,8.35-12.21h-6.89l-5.29,9.04-5.51-9.04h-7.15l8.53,12.32-9.04,13.49Zm-15.79,0h5.69v-25.81h-5.69v25.81Zm-23.42,0h5.69v-20.78h7.36v-5.03h-20.42v5.03h7.36v20.78Zm-28.56,0h16.23v-5.25h-10.54v-20.56h-5.69v25.81Zm-13.02-25.81h-5.69v15.64c0,3.17-2.19,5.58-5.18,5.58s-5.21-2.41-5.21-5.58v-15.64h-5.69v15.86c0,6.09,3.72,10.61,10.9,10.61s10.87-4.52,10.87-10.61v-15.86ZM.82,224.22H6.51v-19.8h.07l6.53,19.8h4.34l6.78-19.8h.07v19.8h5.69v-25.81h-8.57l-5.98,16.84h-.07l-5.94-16.84H.82v25.81Z"/>
      <path class="cls-3" d="M188.2,224.22h5.69v-11.01l9.7-14.8h-6.75l-5.8,9.66-5.47-9.66h-7.07l9.7,14.8v11.01Zm-42.85,0h6.75l6.13-10.39,6.31,10.39h7.15l-9.33-13.6,8.35-12.21h-6.89l-5.29,9.04-5.51-9.04h-7.15l8.53,12.32-9.04,13.49Zm-15.79,0h5.69v-25.81h-5.69v25.81Zm-23.42,0h5.69v-20.78h7.36v-5.03h-20.42v5.03h7.36v20.78Zm-28.56,0h16.23v-5.25h-10.54v-20.56h-5.69v25.81Zm-13.02-25.81h-5.69v15.64c0,3.17-2.19,5.58-5.18,5.58s-5.21-2.41-5.21-5.58v-15.64h-5.69v15.86c0,6.09,3.72,10.61,10.9,10.61s10.87-4.52,10.87-10.61v-15.86ZM.82,224.22H6.51v-19.8h.07l6.53,19.8h4.34l6.78-19.8h.07v19.8h5.69v-25.81h-8.57l-5.98,16.84h-.07l-5.94-16.84H.82v25.81Z"/>
      <path class="cls-4" d="M187.74,223.6h5.69v-11.01l9.7-14.8h-6.75l-5.8,9.66-5.47-9.66h-7.07l9.7,14.8v11.01Zm-42.85,0h6.75l6.13-10.39,6.31,10.39h7.15l-9.33-13.6,8.35-12.21h-6.89l-5.29,9.04-5.51-9.04h-7.15l8.53,12.32-9.04,13.49Zm-15.79,0h5.69v-25.81h-5.69v25.81Zm-23.41,0h5.69v-20.78h7.37v-5.03h-20.42v5.03h7.37v20.78Zm-28.56,0h16.23v-5.25h-10.54v-20.56h-5.69v25.81Zm-13.02-25.81h-5.69v15.64c0,3.17-2.19,5.58-5.18,5.58s-5.21-2.41-5.21-5.58v-15.64h-5.69v15.86c0,6.09,3.72,10.61,10.9,10.61s10.87-4.52,10.87-10.61v-15.86ZM.36,223.6H6.05v-19.8h.07l6.53,19.8h4.34l6.78-19.8h.07v19.8h5.69v-25.81h-8.57l-5.98,16.84h-.07l-5.94-16.84H.36v25.81Z"/>
      <path class="cls-2" d="M187.74,223.6h5.69v-11.01l9.7-14.8h-6.75l-5.8,9.66-5.47-9.66h-7.07l9.7,14.8v11.01Zm-42.85,0h6.75l6.13-10.39,6.31,10.39h7.15l-9.33-13.6,8.35-12.21h-6.89l-5.29,9.04-5.51-9.04h-7.15l8.53,12.32-9.04,13.49Zm-15.79,0h5.69v-25.81h-5.69v25.81Zm-23.41,0h5.69v-20.78h7.37v-5.03h-20.42v5.03h7.37v20.78Zm-28.56,0h16.23v-5.25h-10.54v-20.56h-5.69v25.81Zm-13.02-25.81h-5.69v15.64c0,3.17-2.19,5.58-5.18,5.58s-5.21-2.41-5.21-5.58v-15.64h-5.69v15.86c0,6.09,3.72,10.61,10.9,10.61s10.87-4.52,10.87-10.61v-15.86ZM.36,223.6H6.05v-19.8h.07l6.53,19.8h4.34l6.78-19.8h.07v19.8h5.69v-25.81h-8.57l-5.98,16.84h-.07l-5.94-16.84H.36v25.81Z"/>
    </g>
  </g>
</svg>